<?xml version="1.0" encoding="utf-8"?>
<!-- Generator: Adobe Illustrator 21.0.0, SVG Export Plug-In . SVG Version: 6.00 Build 0)  -->
<svg version="1.1" id="Layer_1" xmlns="http://www.w3.org/2000/svg" xmlns:xlink="http://www.w3.org/1999/xlink" x="0px" y="0px"
	 viewBox="0 0 973.9 249.9" style="enable-background:new 0 0 973.9 249.9;" xml:space="preserve">
<style type="text/css">
	.st0{fill:#3F403F;}
	.st1{fill:#33A888;}
	.st2{fill:#407FB5;}
</style>
<g>
	<path class="st0" d="M451.1,84.8l-9.6,6.4c-9.1-13.8-25.1-22.3-43.5-22.3c-31.1,0-55.3,22.6-55.3,56.1c0,33.5,24.2,56.1,55.3,56.1
		c18.3,0,34.3-8.3,43.4-22.3l9.4,6.8c-10.9,16.4-30.5,26.5-52.8,26.5c-38.4,0-67.3-27.8-67.3-67.2c0-39.4,28.9-67.2,67.3-67.2
		C420.5,57.8,440.7,68.1,451.1,84.8z"/>
	<path class="st0" d="M556,146c0,1.6-0.1,3.1-0.2,4.4h-74c1.6,20.5,16,32.4,34.1,32.4c12.3,0,22-4.9,29.8-12.6l5.7,7.3
		C540.3,188.9,528,192,515.3,192c-25.8,0-44.4-18.6-44.4-45.5c0-26.6,18.9-45.6,43.7-45.6C538.2,101,555.7,119.6,556,146z
		 M482,141.2h63.1c-1.6-18.3-14.1-30.8-30.7-30.8C496.5,110.4,484,123.3,482,141.2z"/>
	<path class="st0" d="M641.9,112.1h-40.7v48.1c0,14.9,7.9,21.8,19.6,21.8c7.6,0,14.5-2.6,19.7-6.8l5.1,8c-6.3,5.3-15,8.8-25.6,8.8
		c-18.4,0-29.5-10.2-29.5-31.6v-48.3h-20.3v-9.8h20.3V73.6h10.7v28.8h40.7V112.1z"/>
	<path class="st0" d="M753,190.6h-10.6v-17c-7.1,11.1-18.9,18.4-35,18.4c-24.8,0-44.1-19.2-44.1-45.5c0-26.3,19.3-45.6,44.1-45.6
		c16,0,27.9,7.4,35,18.4v-17H753V190.6z M674.2,146.6c0,19.9,14.4,35.5,34.4,35.5c20,0,34.3-15.2,34.3-35.5
		c0-20.3-14.4-35.6-34.3-35.6C688.4,111,674.2,126.6,674.2,146.6z"/>
	<path class="st0" d="M841.3,104.2l-2.7,10.4c-4.3-2.3-10.3-3.6-15.7-3.6c-14.7,0-25.2,11.9-25.2,29.7v49.8H787v-88.3h10.5v15
		c5.7-10.3,15.6-16.5,27.2-16.5C831,100.9,836.5,101.9,841.3,104.2z"/>
	<path class="st0" d="M876.5,70.7c0,4.3-3.4,7.6-7.7,7.6s-7.6-3.3-7.6-7.6s3.3-7.8,7.6-7.8S876.5,66.3,876.5,70.7z M874.1,190.6
		h-10.7v-88.3h10.7V190.6z"/>
	<path class="st0" d="M967,119.2c-6-4.2-17.5-8.8-29.9-8.8c-13.8,0-23.5,6-23.5,15.9c0,8.2,6.5,12.7,20.1,14.3l11.3,1.3
		c18.4,2.2,29,9.8,29,23.7c0,16.7-15.3,26.5-38,26.5c-12.9,0-26.1-3.5-36.3-11.3l5-8c6.8,5.3,16.2,9.9,31.4,9.9
		c15.9,0,26.9-5.4,26.9-16.5c0-8.2-6.8-13.1-20.4-14.6l-11.4-1.2c-20-2.3-28.6-11-28.6-23.5c0-16.2,14-25.9,34.3-25.9
		c14,0,26.6,4.2,34.6,9.9L967,119.2z"/>
</g>
<path class="st1" d="M227.5,53.5c-1.4-1.1-3.4-2.1-6.7-3.2c-0.1,0-0.3-0.1-0.5-0.1c-0.1-0.1-0.2-0.1-0.3-0.1
	c-0.1-0.1-0.3-0.1-0.4-0.1h-0.1c0,0-0.1-0.1-0.1-0.1c-6.1-1.9-16.4-4.4-34.4-8.2c-26.8-5.7-65.2-16.9-74.5-20.8S91,24,98.3,29.8
	c2.4,1.9,3.8,3.2,4.6,4.3c0.1,0.1,0.1,0.1,0.2,0.2c1.2,1.3,2,3.1,2,5c0,3.2-1.1,4.7-4.6,7.3C97,49.9,92,53.1,80.9,62.5
	c-17.5,14.9-44.6,47.2-49,86.4c-4.1,36.3,13.8,70,16.4,74.7C18.9,200.7,0,165,0,124.9C0,55.9,55.9,0,125,0
	c41.7,0,78.7,20.5,101.4,51.9C226.7,52.4,227.1,53,227.5,53.5z"/>
<path class="st2" d="M249.9,124.9c0,69-55.9,125-124.9,125c-1.3,0-2.5,0-3.7-0.1c-0.9,0-1.8-0.1-2.7-0.1c-1.3,0-2.6-0.1-3.9-0.2
	c-1.3-0.1-2.5-0.2-3.8-0.4c-1.2-0.1-2.4-0.3-3.6-0.5c-1.4-0.2-2.8-0.4-4.1-0.6c-1.1-0.2-2.3-0.4-3.5-0.7c-1.2-0.3-2.4-0.5-3.6-0.8
	c-1.1-0.2-2.2-0.5-3.3-0.8c-11.6-3.1-22.5-7.8-32.6-13.9c-0.8-0.5-1.7-1.1-2.6-1.6c-0.6-1.6-1.2-3.3-1.8-4.9
	c-2.4-7.1-4.2-14.6-5.3-22.2c-0.1-0.9-0.2-1.9-0.4-2.9c-0.2-1.5-0.4-3.1-0.4-4.6c-0.1-1.3-0.2-2.7-0.3-4c-0.1-1.9-0.1-3.9-0.1-5.8
	c0-71,60.6-128.6,135.4-128.6c1.1,0,2.3,0,3.4,0c15.9,0.5,33.3,4.4,47.4,9.6c0.5,1,1.1,2,1.6,3.1c0.6,1.1,1.1,2.2,1.6,3.4
	c1.5,3.4,3,6.9,4.2,10.4c0.3,0.7,0.5,1.5,0.7,2.2c0.1,0.2,0.1,0.4,0.2,0.6c0.4,1.1,0.7,2.3,1.1,3.4c1.5,5.2,2.7,10.5,3.5,15.8
	c0.2,1.4,0.4,2.8,0.6,4.3c0.2,1.3,0.3,2.7,0.4,4C249.7,117.5,249.9,121.2,249.9,124.9z"/>
</svg>
